Coordinates
version=1
nRows=29
nColumns=22
inDegrees=yes

Units are S.I. units (second, meters, Newtons, ...)
If the header above contains a line with 'inDegrees', this indicates whether rotational values are in degrees (yes) or radians (no).

endheader
time	pelvis_tilt	pelvis_list	pelvis_rotation	pelvis_tx	pelvis_ty	pelvis_tz	hip_flexion_r	hip_adduction_r	hip_rotation_r	knee_angle_r	ankle_angle_r	subtalar_angle_r	hip_flexion_l	hip_adduction_l	hip_rotation_l	knee_angle_l	ankle_angle_l	subtalar_angle_l	lumbar_extension	lumbar_bending	lumbar_rotation
      0.01000000	      0.84784407	      3.51559975	    174.67285403	      0.13626065	      1.02026949	      0.87725237	      2.85441892	      7.01714212	     -4.04204523	     -8.52564163	      6.86837288	     -4.47927442	      3.38708316	     -2.16604311	     -6.40961515	    -10.29508933	      9.74690850	     -2.84052316	    -10.52228581	      3.50944297	      3.69597388
      0.02000000	      0.85990281	      3.51755563	    174.67837868	      0.13606828	      1.02025972	      0.87725222	      2.85372951	      7.01942648	     -4.05844243	     -8.52116663	      6.86893756	     -4.47874042	      3.36988827	     -2.16666056	     -6.40930873	    -10.25918778	      9.75156826	     -2.84076260	    -10.48438668	      3.50516909	      3.71616081
      0.03000000	      0.87200920	      3.51726837	    174.68457176	      0.13584746	      1.02024860	      0.87725310	      2.85326175	      7.01907986	     -4.06632566	     -8.52021658	      6.87307232	     -4.47717659	      3.35228486	     -2.16492488	     -6.40522925	    -10.22634454	      9.74567608	     -2.84285754	    -10.43747075	      3.50000940	      3.72929083
      0.04000000	      0.89193434	      3.50802534	    174.69040717	      0.13561855	      1.02022625	      0.87725555	      2.86770340	      7.00975898	     -4.06706313	     -8.53235322	      6.88621746	     -4.47168672	      3.33821821	     -2.15207919	     -6.38204013	    -10.18267750	      9.72341751	     -2.85312744	    -10.37547441	      3.48538481	      3.74282516
      0.05000000	      0.89669658	      3.50750103	    174.70403913	      0.13535343	      1.02021898	      0.87726560	      2.85777549	      7.00838936	     -4.07580722	     -8.53401201	      6.89623470	     -4.47071834	      3.31621141	     -2.14956719	     -6.38834020	    -10.15840728	      9.72607975	     -2.85670526	    -10.32066528	      3.48306457	      3.74365472
      0.06000000	      0.89906541	      3.50437427	    174.71541865	      0.13507578	      1.02021344	      0.87727383	      2.84930969	      7.00381213	     -4.08065240	     -8.54435707	      6.91191381	     -4.47036549	      3.28655899	     -2.14294861	     -6.38140689	    -10.12673413	      9.72879616	     -2.86055793	    -10.26141907	      3.47964378	      3.74332754
      0.07000000	      0.89548112	      3.49903779	    174.72862480	      0.13479130	      1.02021095	      0.87728638	      2.83727681	      6.99670469	     -4.08279842	     -8.56155833	      6.93324644	     -4.47132733	      3.25151100	     -2.13243821	     -6.36850274	    -10.09649615	      9.73202424	     -2.86470208	    -10.20341091	      3.47544406	      3.73925092
      0.08000000	      0.88484096	      3.49271186	    174.74296773	      0.13450254	      1.02021398	      0.87730090	      2.82005482	      6.98741008	     -4.08540525	     -8.58325819	      6.95980633	     -4.47402773	      3.21011716	     -2.12054472	     -6.35293762	    -10.06926944	      9.73716291	     -2.86907377	    -10.14929201	      3.47134756	      3.73090171
      0.09000000	      0.86558479	      3.48607705	    174.75916952	      0.13421098	      1.02022423	      0.87731672	      2.79553180	      6.97725360	     -4.09131958	     -8.60952693	      6.99217889	     -4.47894698	      3.16091430	     -2.10725410	     -6.33404311	    -10.04466682	      9.74473271	     -2.87392339	    -10.10217271	      3.46719455	      3.71839304
      0.10000000	      0.82222402	      3.47637699	    174.78436501	      0.13393006	      1.02026744	      0.87734723	      2.74770501	      6.96043770	     -4.11224104	     -8.63792742	      7.03921879	     -4.48992308	      3.09117434	     -2.08801124	     -6.29689148	    -10.02694519	      9.74708539	     -2.88343693	    -10.08506732	      3.45740547	      3.70462368
      0.11000000	      0.80155263	      3.47771172	    174.79878246	      0.13365141	      1.02027825	      0.87735818	      2.72452926	      6.95909703	     -4.11154039	     -8.66806890	      7.04620038	     -4.49281421	      3.04926005	     -2.08571555	     -6.29964840	    -10.01854591	      9.75657901	     -2.88499228	    -10.03922847	      3.46572233	      3.68486489
      0.12000000	      0.74539866	      3.47446256	    174.82535922	      0.13337248	      1.02033383	      0.87737491	      2.66601519	      6.94937950	     -4.14028820	     -8.70326982	      7.10086069	     -4.50623412	      2.96810164	     -2.07342889	     -6.26293527	    -10.00600565	      9.77917827	     -2.88856846	    -10.03481007	      3.45971375	      3.66806070
      0.13000000	      0.71762266	      3.47612759	    174.83718239	      0.13311657	      1.02035696	      0.87738280	      2.64395299	      6.94755029	     -4.13413896	     -8.74723030	      7.10480374	     -4.50910299	      2.92388353	     -2.07134897	     -6.26423209	    -10.00533996	      9.78516118	     -2.88916650	     -9.99846562	      3.46877140	      3.63956187
      0.14000000	      0.62289800	      3.47338099	    174.87067052	      0.13283519	      1.02047919	      0.87741261	      2.54266644	      6.93391868	     -4.16858703	     -8.77908377	      7.15018462	     -4.52501166	      2.79956339	     -2.05563809	     -6.23178363	     -9.98673581	      9.78768514	     -2.89129358	    -10.03915021	      3.46111855	      3.60355131
      0.15000000	      0.59401447	      3.47674869	    174.87723122	      0.13260018	      1.02050271	      0.87740869	      2.52828909	      6.93438589	     -4.15505474	     -8.83788629	      7.16003096	     -4.52750016	      2.75870787	     -2.05611826	     -6.22651710	     -9.99522607	      9.80346296	     -2.89136619	    -10.00602091	      3.46947681	      3.58063772
      0.16000000	      0.53598509	      3.47545050	    174.89559172	      0.13236400	      1.02055951	      0.87742575	      2.48423817	      6.92544255	     -4.17139657	     -8.89996690	      7.22588694	     -4.53704380	      2.68995944	     -2.04804551	     -6.21013404	    -10.00706034	      9.83759909	     -2.89133121	    -10.00740195	      3.46784610	      3.55802265
      0.17000000	      0.46494173	      3.47699605	    174.91366669	      0.13212212	      1.02064964	      0.87744270	      2.41763250	      6.91896597	     -4.17669197	     -8.94523182	      7.24725270	     -4.54412875	      2.59980095	     -2.04116006	     -6.19680775	    -10.00432349	      9.84131738	     -2.88894178	    -10.02478993	      3.46923137	      3.51834245
      0.18000000	      0.42571449	      3.48011728	    174.92100953	      0.13192868	      1.02068414	      0.87745164	      2.39395873	      6.91726350	     -4.16404279	     -9.00325313	      7.27803620	     -4.54865327	      2.56221031	     -2.04116433	     -6.19008710	    -10.03544902	      9.86473133	     -2.88899880	    -10.01187048	      3.47444399	      3.49808630
      0.19000000	      0.38638761	      3.48269352	    174.92654051	      0.13173243	      1.02071986	      0.87745983	      2.36521397	      6.91494714	     -4.15646344	     -9.05221762	      7.30716813	     -4.55323495	      2.52329383	     -2.04066928	     -6.18757076	    -10.06394377	      9.88623887	     -2.88812663	     -9.99978403	      3.47901012	      3.47556327
      0.20000000	      0.35718927	      3.48630317	    174.92797099	      0.13154534	      1.02074407	      0.87746649	      2.34397192	      6.91480769	     -4.14183156	     -9.09409629	      7.31964192	     -4.55574511	      2.49531012	     -2.04193152	     -6.18519616	    -10.09188312	      9.89956848	     -2.88767073	     -9.97884507	      3.48441620	      3.45734231
      0.21000000	      0.32458236	      3.49142520	    174.92494453	      0.13135743	      1.02076744	      0.87746747	      2.31208618	      6.91619731	     -4.13034303	     -9.12319528	      7.34983064	     -4.56012307	      2.46744760	     -2.04547364	     -6.18793973	    -10.13032401	      9.92901364	     -2.88749803	     -9.96445012	      3.49030571	      3.44814356
      0.22000000	      0.29605045	      3.49879477	    174.91627984	      0.13115134	      1.02078680	      0.87745824	      2.27375539	      6.92085370	     -4.12037271	     -9.13406042	      7.37411291	     -4.56394371	      2.43872632	     -2.05208914	     -6.19914594	    -10.16232301	      9.96058639	     -2.88686777	     -9.94388482	      3.49774061	      3.45153725
      0.23000000	      0.27088687	      3.50761312	    174.90163134	      0.13095104	      1.02080282	      0.87743675	      2.23651065	      6.92831214	     -4.10049927	     -9.14061081	      7.38775738	     -4.56633041	      2.41233216	     -2.06072291	     -6.21161609	    -10.19320247	      9.98839794	     -2.88578520	     -9.92299475	      3.50610986	      3.46064186
      0.24000000	      0.24732378	      3.51877264	    174.87827219	      0.13074358	      1.02081882	      0.87740039	      2.19775788	      6.93847317	     -4.07408244	     -9.14255512	      7.39404363	     -4.56707061	      2.38224855	     -2.07248065	     -6.23520807	    -10.21774514	     10.01729225	     -2.88340207	     -9.90178575	      3.51641838	      3.47637232
      0.25000000	      0.23202989	      3.52790219	    174.85544744	      0.13053505	      1.02082348	      0.87735797	      2.16333587	      6.94772600	     -4.05132466	     -9.13568928	      7.40475479	     -4.56666080	      2.36120763	     -2.08291649	     -6.25443379	    -10.24235108	     10.04423832	     -2.88196672	     -9.87085480	      3.52443496	      3.49413902
      0.26000000	      0.22389911	      3.53345799	    174.83617597	      0.13032377	      1.02082145	      0.87731475	      2.13520608	      6.95388645	     -4.04467214	     -9.12522562	      7.41350956	     -4.56621901	      2.34652104	     -2.08905899	     -6.26533297	    -10.26282382	     10.06072709	     -2.88176809	     -9.83095171	      3.52831938	      3.51094526
      0.27000000	      0.21525703	      3.54887559	    174.80045438	      0.13012486	      1.02082000	      0.87723788	      2.10712638	      6.97210486	     -4.00209754	     -9.11926715	      7.41859900	     -4.56398736	      2.33057202	     -2.10878392	     -6.30334642	    -10.28857324	     10.10207273	     -2.88021886	     -9.79850227	      3.54236862	      3.53566660
      0.28000000	      0.21384113	      3.55865564	    174.76973207	      0.12991572	      1.02081282	      0.87716877	      2.08335978	      6.98434378	     -3.97667328	     -9.10545707	      7.42211170	     -4.56183682	      2.31787332	     -2.12157758	     -6.33215194	    -10.30359569	     10.12780899	     -2.87658026	     -9.75586310	      3.55143904	      3.55620274
      0.29000000	      0.21497102	      3.56274059	    174.74858957	      0.12969969	      1.02080542	      0.87711824	      2.06185344	      6.98927854	     -3.97648120	     -9.08965661	      7.42926826	     -4.56156659	      2.30450941	     -2.12642449	     -6.34416773	    -10.30787777	     10.14056598	     -2.87585677	     -9.70924286	      3.55693004	      3.56097421
